<svg width="165" height="214" viewBox="0 0 165 214" fill="none" xmlns="http://www.w3.org/2000/svg">
<path fill-rule="evenodd" clip-rule="evenodd" d="M139.06 50.6976C138.109 50.6976 137.183 50.3944 136.416 49.8319C115.942 38.0214 95.4575 26.1518 74.9607 14.2229C74.3841 13.865 73.8075 13.4849 73.1498 13.0512L73.1493 13.0509C72.6328 12.7103 72.0662 12.3368 71.4105 11.9152C73.299 10.8568 75.1634 9.85295 76.9955 8.86646C81.4315 6.47788 85.6785 4.19108 89.6232 1.47752C93.4575 -1.18517 95.9782 0.199429 99.2444 2.11656C107.418 6.96586 115.68 11.692 123.943 16.4188L123.944 16.4192L123.944 16.4195L123.945 16.4198L123.945 16.4201L123.946 16.4205C127.418 18.4066 130.89 20.3929 134.356 22.3885L161.658 38.2226C159.751 39.3261 157.878 40.4031 156.033 41.4646L156.031 41.466L156.03 41.4664C151.108 44.2975 146.378 47.0178 141.705 49.8319C140.938 50.3944 140.012 50.6976 139.06 50.6976ZM164.641 44.471L164.215 43.8675C162.9 44.6342 161.579 45.3908 160.257 46.1477L160.257 46.1478L160.257 46.148L160.257 46.1481L160.256 46.1483L160.256 46.1485C157.294 47.8446 154.33 49.5421 151.434 51.3585C149.907 52.4588 148.264 53.3875 146.534 54.1277C145.052 54.4685 143.757 55.3662 142.918 56.6349C142.079 57.9037 141.759 59.4465 142.026 60.9442C142.31 64.1643 142.215 67.4317 142.12 70.6939V70.6942C142.073 72.3234 142.026 73.9512 142.026 75.5712C142.138 76.5938 141.928 77.6261 141.426 78.5237C140.923 79.4212 140.152 80.1391 139.221 80.577C136.063 82.3755 132.959 84.2552 129.859 86.1325L129.857 86.1336C127.939 87.2948 126.023 88.4551 124.097 89.5947C120.547 91.7958 117.884 90.4467 117.777 86.293V78.5889V70.5299L105.281 78.0564L98.18 81.8551C97.6771 82.0706 97.2517 82.4339 96.96 82.8968C96.6684 83.3596 96.5243 83.9002 96.5469 84.4468C96.5469 94.2455 96.6297 104.068 96.7954 113.914V161.026L127.186 143.274L153.635 127.866C154.585 127.342 155.536 126.804 156.486 126.267C158.624 125.056 160.763 123.846 162.901 122.79C163.403 122.577 163.827 122.213 164.114 121.749C164.4 121.284 164.534 120.742 164.499 120.198C164.593 94.9911 164.641 69.7488 164.641 44.471ZM22.9544 105.057V105.057C22.8888 97.9981 22.8232 90.9388 23.2348 83.8795C22.7733 72.6607 22.7378 61.4419 23.3058 50.1166C23.2772 49.7733 23.2255 49.4357 23.174 49.0992C23.0977 48.6007 23.0218 48.1046 23.0218 47.5959C23.0218 43.7617 23.3413 43.6197 26.572 45.4658L35.5541 50.7912L88.0268 81.1103C88.1777 81.2096 88.3282 81.3049 88.4764 81.3987C89.6533 82.144 90.6895 82.8002 90.6895 84.6606V114.66V160.494C90.4538 160.525 90.2151 160.525 89.9795 160.494L24.6904 122.932C24.1753 122.739 23.7303 122.396 23.4136 121.946C23.0969 121.496 22.9232 120.962 22.9153 120.412C23.0496 115.294 23.002 110.176 22.9544 105.057ZM67.7474 170.549C67.8154 177.306 67.8835 184.066 67.5063 190.812C67.9239 195.281 67.8871 199.761 67.851 204.167C67.8257 207.253 67.8007 210.302 67.9323 213.286H66.8317C45.1279 200.765 23.3885 188.268 1.61369 175.795C1.07991 175.514 0.642418 175.08 0.357657 174.549C0.0728965 174.017 -0.0460769 173.413 0.0160725 172.813V126.056V96.6244C3.03158 98.5631 6.1615 100.318 9.38873 101.879C15.2821 104.293 18.1933 108.092 16.8798 114.66C16.7311 115.644 16.7964 116.678 16.8619 117.714C16.9215 118.658 16.9813 119.604 16.8798 120.518C16.6235 121.983 16.8833 123.491 17.6149 124.786C18.3464 126.081 19.5045 127.082 20.8915 127.618C33.1275 134.517 45.2899 141.564 57.4602 148.614L57.4984 148.636C59.9699 150.068 62.4418 151.5 64.9146 152.931C65.1549 153.107 65.4023 153.268 65.6462 153.427L65.6467 153.427C66.7359 154.136 67.7548 154.799 67.7548 156.482C67.653 161.166 67.7002 165.856 67.7474 170.547V170.547V170.548V170.548V170.548V170.549V170.549ZM91.0796 75.9978C91.8816 76.6054 92.8603 76.9343 93.8665 76.9343C94.8728 76.9343 95.8514 76.6054 96.6535 75.9978C101.036 73.3255 105.479 70.794 109.967 68.2367L109.968 68.2364L109.971 68.2343C111.444 67.395 112.922 66.5529 114.405 65.7021C113.891 64.567 113.049 64.152 112.237 63.7522C111.982 63.6269 111.731 63.503 111.494 63.3589C105.098 59.6615 98.6953 55.9675 92.2912 52.2726L92.2861 52.2696L92.2831 52.2679L92.2822 52.2674C78.2128 44.15 64.1361 36.0284 50.1097 27.8565C49.2925 27.2052 48.2848 26.8388 47.2401 26.8131C46.1954 26.7875 45.171 27.104 44.3228 27.7144C39.7684 30.4915 35.1271 33.1383 30.178 35.9606L30.1763 35.9615L30.1653 35.9678L30.1609 35.9703C28.7886 36.7529 27.3925 37.549 25.968 38.3652L41.0211 47.0633C43.5078 48.4941 45.9944 49.924 48.4808 51.3538L48.4826 51.3549C62.715 59.5393 76.9359 67.7171 91.0796 75.9978ZM123.309 64.0156C122.714 62.9656 121.794 62.1373 120.687 61.6551C111.776 56.6493 102.758 51.3594 93.7764 46.0695L53.2325 22.6379C54.4995 21.8696 55.7358 21.1628 56.9394 20.4746L56.9395 20.4745C58.9062 19.35 60.7857 18.2753 62.5697 17.064C63.3244 16.4882 64.2475 16.1763 65.1968 16.1763C66.1462 16.1763 67.0693 16.4882 67.824 17.064C86.0368 27.7148 104.356 38.3655 122.604 48.8032C123.951 49.5876 125.458 50.2707 126.967 50.9546L126.967 50.9547C130.513 52.5613 134.069 54.1723 135.563 57.1108C137.072 60.0792 136.763 63.9746 136.455 67.8621L136.455 67.8626C136.328 69.4614 136.202 71.0588 136.202 72.5899V73.6905C136.278 74.2315 136.169 74.7824 135.891 75.2531C135.614 75.7239 135.185 76.0867 134.675 76.2822C131.799 77.8798 128.959 79.5129 126.119 81.217C124.522 82.1756 123.989 81.6785 123.989 79.9389V67.4776C124.143 66.2804 123.905 65.0655 123.309 64.0156ZM127.65 150.292L127.648 150.293L127.648 150.293C119.664 154.837 111.811 159.307 104.216 164.221C101.586 165.15 99.1087 166.466 96.8666 168.126C95.9832 168.764 94.921 169.108 93.8312 169.108C92.7413 169.108 91.6791 168.764 90.7957 168.126C86.8715 165.777 82.891 163.502 78.7313 161.126L78.7311 161.126L78.7256 161.123C77.1669 160.232 75.583 159.327 73.9675 158.398V171.073V211.546C73.9675 214.208 75.0681 213.605 76.5592 212.753L102.369 197.7L123.92 185.167L140.18 176.008C140.672 175.778 141.082 175.403 141.355 174.933C141.627 174.464 141.75 173.922 141.706 173.38C141.52 164.568 141.524 155.728 141.528 146.364C141.528 145.014 141.529 143.653 141.529 142.28C136.875 145.041 132.241 147.679 127.65 150.292ZM2.92596 91.618L16.7719 83.5589V99.6061L2.92596 91.618Z" fill="url(#paint0_linear_191_66)"/>
<defs>
<linearGradient id="paint0_linear_191_66" x1="-72.0547" y1="157.617" x2="144.759" y2="-6.72284" gradientUnits="userSpaceOnUse">
<stop stop-color="#003399"/>
<stop offset="0.51" stop-color="#0066CC"/>
<stop offset="1" stop-color="#33CCFF"/>
</linearGradient>
</defs>
</svg>
