<svg data-v-40c118ec="" xmlns="http://www.w3.org/2000/svg" width="15" height="14" fill="none" class="badge__icon"><rect width="12.444" height="12.444" x="1.5" y="1" fill="#898995" rx="3"></rect><path fill="#fff" d="M4.875 3.5H9.25v7H4.875z"></path><path fill="#898995" d="M7.5 1.164a5.843 5.843 0 0 0-5.834 5.833 5.843 5.843 0 0 0 5.833 5.834 5.843 5.843 0 0 0 5.834-5.834 5.843 5.843 0 0 0-5.834-5.833m-.438 3.5a.44.44 0 0 1 .437-.437.44.44 0 0 1 .438.437v2.917a.44.44 0 0 1-.438.437.44.44 0 0 1-.437-.437zm.974 4.888a.6.6 0 0 1-.122.193.7.7 0 0 1-.193.122.6.6 0 0 1-.222.047.6.6 0 0 1-.221-.047.7.7 0 0 1-.193-.122.6.6 0 0 1-.122-.193.6.6 0 0 1-.047-.221.6.6 0 0 1 .047-.222q.044-.105.122-.192a.7.7 0 0 1 .193-.123.58.58 0 0 1 .443 0q.105.044.193.123a.7.7 0 0 1 .122.192.6.6 0 0 1 .047.222.6.6 0 0 1-.047.221"></path></svg>