<svg data-v-55a6b393="" xmlns="http://www.w3.org/2000/svg" width="26" height="26" fill="none" class="table__action-icon"><rect width="26" height="26" fill="#DFE2EA" fill-opacity=".3" rx="6"></rect><rect width="25.5" height="25.5" x=".25" y=".25" stroke="#99A1B7" stroke-opacity=".6" stroke-width=".5" rx="5.75"></rect><path fill="#99A1B7" d="M11.833 19.268h-.584c-3.167 0-4.52-1.353-4.52-4.52v-3.5c0-3.168 1.353-4.521 4.52-4.521h3.5c3.168 0 4.521 1.353 4.521 4.52v1.167a.44.44 0 0 1-.437.438.44.44 0 0 1-.438-.438v-1.167c0-2.689-.956-3.645-3.646-3.645h-3.5c-2.689 0-3.645.956-3.645 3.645v3.5c0 2.69.956 3.646 3.645 3.646h.584a.44.44 0 0 1 .437.438.44.44 0 0 1-.437.437"></path><path fill="#99A1B7" d="M18.833 11.398H7.183a.44.44 0 0 1-.437-.437.44.44 0 0 1 .438-.438h11.649a.44.44 0 0 1 .437.438.44.44 0 0 1-.437.437M13 15.477H7.183a.44.44 0 0 1-.438-.438.44.44 0 0 1 .438-.437h5.815a.44.44 0 0 1 .438.437.44.44 0 0 1-.438.438"></path><path fill="#99A1B7" d="M10.965 19.266a.44.44 0 0 1-.438-.437V7.179a.44.44 0 0 1 .438-.437.44.44 0 0 1 .437.438v11.649c0 .239-.192.437-.437.437M15.047 13.433a.44.44 0 0 1-.438-.437V7.18a.44.44 0 0 1 .438-.438.44.44 0 0 1 .437.438v5.816c0 .239-.192.437-.437.437M14.61 19.274a.88.88 0 0 1-.63-.25.88.88 0 0 1-.24-.777l.135-.927c.03-.222.163-.49.327-.653l2.42-2.421c.316-.315.625-.479.951-.514.403-.04.805.135 1.185.514.379.379.554.776.513 1.184-.03.327-.198.636-.514.95l-2.42 2.422a1.3 1.3 0 0 1-.654.326l-.921.134a2 2 0 0 1-.152.012m3.068-4.667h-.023q-.175.018-.42.263l-2.42 2.42a.4.4 0 0 0-.077.158l-.134.928.951-.105a.5.5 0 0 0 .158-.076l2.42-2.421q.246-.245.263-.42.017-.2-.263-.478-.262-.27-.455-.269"></path><path fill="#99A1B7" d="M18.1 16.859a.4.4 0 0 1-.117-.018 2.65 2.65 0 0 1-1.82-1.82.434.434 0 0 1 .303-.536c.239-.064.472.07.537.303.163.583.63 1.05 1.213 1.213a.437.437 0 0 1-.117.858"></path></svg>